<svg width="500" height="500" viewBox="0 0 500 500" fill="none" xmlns="http://www.w3.org/2000/svg">
<rect width="500" height="500" rx="40" fill="#16A34A"/>
<path d="M258.085 447.673C336.272 447.673 389.635 412.041 389.635 346.013V85.6164H307.395V130.029H305.031C295.068 106.218 272.439 82.239 231.573 82.239C177.366 82.239 128.225 123.95 128.225 214.97C128.225 303.12 175.002 341.454 231.911 341.454C270.075 341.454 295.574 323.722 305.369 299.743H308.24V345.338C308.24 378.436 287.975 390.426 260.281 390.426C233.768 390.426 217.894 380.294 213.504 364.251L135.317 368.642C141.397 414.068 184.121 447.673 258.085 447.673ZM260.618 281.336C230.053 281.336 212.997 256.512 212.997 214.97C212.997 173.597 229.884 146.747 260.618 146.747C290.846 146.747 308.408 172.922 308.408 214.97C308.408 256.681 290.677 281.336 260.618 281.336Z" fill="white"/>
</svg>
