<svg width="1330" height="472" viewBox="0 0 1330 472" fill="none" xmlns="http://www.w3.org/2000/svg">
<path d="M130.085 471.673C208.272 471.673 261.635 436.041 261.635 370.013V109.616H179.395V154.029H177.031C167.068 130.218 144.439 106.239 103.573 106.239C49.3657 106.239 0.224693 147.95 0.224693 238.97C0.224693 327.12 47.0016 365.454 103.911 365.454C142.075 365.454 167.574 347.722 177.369 323.743H180.24V369.338C180.24 402.436 159.975 414.426 132.281 414.426C105.768 414.426 89.8944 404.294 85.5038 388.251L7.31721 392.642C13.3965 438.068 56.1205 471.673 130.085 471.673ZM132.618 305.336C102.053 305.336 84.9972 280.512 84.9972 238.97C84.9972 197.597 101.884 170.747 132.618 170.747C162.846 170.747 180.408 196.922 180.408 238.97C180.408 280.681 162.677 305.336 132.618 305.336ZM314.28 369H396.857V109.616H314.28V369ZM355.653 79.3888C379.126 79.3888 398.039 61.6575 398.039 39.8733C398.039 18.0891 379.126 0.52667 355.653 0.52667C332.349 0.52667 313.267 18.0891 313.267 39.8733C313.267 61.6575 332.349 79.3888 355.653 79.3888ZM570.328 471.673C648.515 471.673 701.878 436.041 701.878 370.013V109.616H619.638V154.029H617.274C607.311 130.218 584.682 106.239 543.816 106.239C489.609 106.239 440.468 147.95 440.468 238.97C440.468 327.12 487.244 365.454 544.153 365.454C582.318 365.454 607.817 347.722 617.612 323.743H620.482V369.338C620.482 402.436 600.218 414.426 572.524 414.426C546.011 414.426 530.137 404.294 525.747 388.251L447.56 392.642C453.639 438.068 496.363 471.673 570.328 471.673ZM572.861 305.336C542.296 305.336 525.24 280.512 525.24 238.97C525.24 197.597 542.127 170.747 572.861 170.747C603.089 170.747 620.651 196.922 620.651 238.97C620.651 280.681 602.92 305.336 572.861 305.336ZM980.977 188.816C976.586 137.48 934.538 106.239 864.288 106.239C794.038 106.239 749.288 136.804 749.625 188.816C749.288 228.669 774.787 254.338 826.63 263.963L871.887 272.575C893.333 276.797 903.128 283.552 903.466 295.035C903.128 308.038 888.605 316.65 867.496 316.65C844.023 316.65 828.15 306.518 824.603 287.605L743.039 289.631C748.95 340.968 793.025 373.897 867.159 373.897C936.564 373.897 987.056 339.279 987.394 285.916C987.056 248.089 962.063 225.63 910.389 215.666L860.404 206.21C838.451 201.819 831.358 194.051 831.527 184.088C831.358 170.916 846.725 162.81 865.808 162.81C887.592 162.81 902.79 174.462 905.154 190.843L980.977 188.816ZM1028.05 369H1110.63V109.616H1028.05V369ZM1069.42 79.3888C1092.89 79.3888 1111.81 61.6575 1111.81 39.8733C1111.81 18.0891 1092.89 0.52667 1069.42 0.52667C1046.12 0.52667 1027.04 18.0891 1027.04 39.8733C1027.04 61.6575 1046.12 79.3888 1069.42 79.3888ZM1163.19 369H1245.76V228.163C1245.76 197.26 1267.72 176.489 1297.27 176.489C1307.06 176.489 1321.76 178.177 1329.69 180.879V109.11C1322.77 107.252 1314.16 106.07 1306.56 106.07C1278.19 106.07 1255.56 122.619 1246.1 156.9H1243.4V109.616H1163.19V369Z" fill="#16A34A"/>
</svg>
